<svg width="35" height="35" viewBox="0 0 35 35" fill="none" xmlns="http://www.w3.org/2000/svg">
<path fill-rule="evenodd" clip-rule="evenodd" d="M18.8878 10.2786L21.963 7.20343C23.2963 5.8701 23.963 5.20343 24.7914 5.20343C25.6199 5.20343 26.2865 5.8701 27.6199 7.20343L27.7963 7.37991C29.1297 8.71324 29.7963 9.37991 29.7963 10.2083C29.7963 11.0368 29.1297 11.7034 27.7963 13.0368L24.7532 16.0799C22.3273 14.6756 20.3099 12.6733 18.8878 10.2786ZM17.4335 11.7329L6.68948 22.477C6.26442 22.902 6.05189 23.1145 5.91216 23.3756C5.77242 23.6367 5.71348 23.9315 5.59559 24.5209L4.52186 29.8896C4.45534 30.2222 4.42208 30.3885 4.51668 30.4831C4.61129 30.5777 4.7776 30.5444 5.11021 30.4779L10.4789 29.4042L10.4789 29.4042C11.0683 29.2863 11.363 29.2274 11.6241 29.0876C11.8852 28.9479 12.0978 28.7354 12.5228 28.3103L23.2951 17.538C20.9201 16.0694 18.917 14.0803 17.4335 11.7329Z" fill="white"/>
</svg>
