<svg width="1440" height="600" viewBox="0 0 1440 600" fill="none" xmlns="http://www.w3.org/2000/svg">
<g clip-path="url(#clip0_22_157)">
<path d="M1440 0H0V600H1440V0Z" fill="#3196E2"/>
<path d="M877.6 600C914.4 561.6 951.2 523.1 972.96 479.1C994.56 435 1001.12 385.3 1042.24 351.4C1083.36 317.5 1159.2 299.5 1231.2 285C1303.2 270.4 1371.68 259.4 1440 248.5V600H877.6Z" fill="#FF836C"/>
<path d="M562.4 0C541.28 47.8 520.16 95.7 470.08 121.7C420 147.7 341.28 152 300.96 188.1C260.64 224.2 259.04 292.2 215.2 324.8C171.52 357.3 85.76 354.4 0 351.5V0H562.4Z" fill="#FF836C"/>
</g>
<defs>
<clipPath id="clip0_22_157">
<rect width="1440" height="600" fill="white"/>
</clipPath>
</defs>
</svg>
